P1
# CREATOR: GIMP PNM Filter Version 1.1
200 200
0000000000000000000000000000000000000000000000000000000000000000000000
0000000000000000000000000000000000000000000000000000000000000000000000
0000000000000000000000000000000000000000000000000000000000000000000000
0000000000000000000000000000000000000000000000000000000000000000000000
0000000000000000000000000000000000000000000000000000000000000000000000
0000000000000000000000000000000000000000000000000000000000000000000000
0000000000000000000000000000000000000000000000000000000000000000000000
0000000000000000000000000000000000000000000000000000000000000000000000
0000000000000000000000000000000000000000000000000000000000000000000000
0000000000000000000000000000000000000000000000000000000000000000000000
0000000000000000000000000000000000000000000000000000000000000000000000
0000000000000000000000000000000000000000000000000000000000000000000000
0000000000000000000000000000000000000000000000000000000000000000000000
0000000000000000000000000000000000000000000000000000000000000000000000
0000000000000000000000000000000000000000000000000000000000000000000000
0000000000000000000000000000000000000000000000000000000000000000000000
0000000000000000000000000000000000000000000000000000000000000000000000
0000000000000000000000000000000000000000000000000000000000000000000000
0000000000000000000000000000000000000000000000000000000000000000000000
0000000000000000000000000000000000000000000000000000000000000000000000
0000000000000000000000000000000000000000000000000000000000000000000000
0000000000000000000000000000000000000000000000000000000000000000000000
0000000000000000000000000000000000000000000000000000000000000000000000
0000000000000000000000000000000000000000000000000000000000000000000000
0000000000000000000000000000000000000000000000000000000000000000000000
0000000000000000000000000000000000000000000000000000000000000000000000
0000000000000000000000000000000000000000000000000000000000000000000000
0000000000000000000000000000000000000000000000000000000000000000000000
0000000000000000000000000000000000000000000000000000000000000000000000
0000000000000000000000000000000000000000000000000000000000000000000000
0000000000000000000000000000000000000000000000000000000000000000000000
0000000000000000000000000000000000000000000000000000000000000000000000
0000000000000000000000000000000000000000000000000000000000000000000000
0000000000000000000000000000000000000000000000000000000000000000000000
0000000000000000000000000000000000000000000000000000000000000000000000
0000000000000000000000000000000000000000000000000000000000000000000000
0000000000000000000000000000000000000000000000000000000000000000000000
0000000000000000000000000000000000000000000000000000000000000000000000
0000000000000000000000000000000000000000000000000000000000000000000000
0000000000000000000000000000000000000000000000000000000000000000000000
0000000000000000000000000000000000000000000000000000000000000000000000
0000000000000000111000000000000000000000000000000000000000000000000000
0000000000000000000000000000000000000000000000000000000000000000000000
0000000000000000000000000000000000000000000000000000000000000000000000
0000011110000000000000000000000000000000000000000000000000000000000000
0000000000000000000000000000000000000000000000000000000000000000000000
0000000000000000000000000000000000000000000000000000000000000001111111
0000000000000000000000000000000000000000000000000000000000000000000000
0000000000000000000000000000000000000000000000000000000000000000000000
0000000000000000000000000000000000000000000000000000111111111000000000
0000000000000000000000000000000000000000000000000000000000000000000000
0000000000000000000000000000000000000000000000000000000000000000000000
0000000000000000000000000000000000000000011111111111000000000000000000
0000000000000000000000000000000000000000000000000000000000000000000000
0000000000000000000000000000000000000000000000000000000000000000000000
0000000000000000000000000000001111111111111000000000000000000000000000
0000000000000000000000000000000000000000000000000000000000000000000000
0000000000000000000000000000000000000000000000000000000000000000000000
0000000000000000000111111111111111000000000000000000000000000000000000
0000000000000000000000000000000000000000000000000000000000000000000000
0000000000000000000000000000000000000000000000000000000000000000000000
0000000011111111111111111000000000000000000000000000000000000000000000
0000000000000000000000000000000000000000000000000000000000000000000000
0000000000000000000000000000000000000000000000000000000000000000000111
1111111111111111000000000000000000000000000000000000000000000000000000
0000000000000000000000000000000000000000000000000000000000000000000000
0000000000000000000000000000000000000000000000000000000011111111111111
1111111000000000000000000000000000000000000000000000000000000000000000
0000000000000000000000000000000000000000000000000000000000000000000000
0000000000000000000000000000000000000000000001111111111111111111111000
0000000000000000000000000000000000000000000000000000000000000000000000
0000000000000000000000000000000000000000000000000000000000000000000000
0000000000000000000000000000000000111111111111111111111111000000000000
0000000000000000000000000000000000000000000000000000000000000000000000
0000000000000000000000000000000000000000000000000000000000000000000000
0000000000000000000000011111111111111111111111111000000000000000000000
0000000000000000000000000000000000000000000000000000000000000000000000
0000000000000000000000000000000000000000000000000000000000000000000000
0000000000001111111111111111111111111110000000000000000000000000000000
0000000000000000000000000000000000000000000000000000000000000000000000
0000000000000000000000000000000000000000000000000000000000000000000000
0111111111111111111111111111110000000000000000000000000000000000000000
0000000000000000000000000000000000000000000000000000000000000000000000
0000000000000000000000000000000000000000000000000000000000001111111111
1111111111111111111110000000000000000000000000000000000000000000000000
0000000000000000000000000000000000000000000000000000000000000000000000
0000000000000000000000000000000000000000000000000111111111111111111111
1111111111110000000000000000000000000000000000000000000000000000000000
0000000000000000000000000000000000000000000000000000000000000000000000
0000000000000000000000000000000000000001111111111111111111111111111111
1110000000000000000000000000000000000000000000000000000000000000000000
0000000000000000000000000000000000000000000000000000000000000000000000
0000000000000000000000000000111111111111111111111111111111111111000000
0000000000000000000000000000000000000000000000000000000000000000000000
0000000000000000000000000000000000000000000000000000000000000000000000
0000000000000000011111111111111111111111111111111111111000000000000000
0000000000000000000000000000000000000000000000000000000000000000000000
0000000000000000000000000000000000000000000000000000000000000000000000
0000000111111111111111111111111111111111111110000000000000000000000000
0000000000000000000000000000000000000000000000000000000000000000000000
0000000000000000000000000000000000000000000000000000000000000000000011
1111111111111111111111111111111111110000000000000000000000000000000000
0000000000000000000000000000000000000000000000000000000000000000000000
0000000000000000000000000000000000000000000000000000000000011111111111
1111111111111111111111111110000000000000000000000000000000000000000000
0000000000000000000000000000000000000000000000000000000000000000000000
0000000000000000000000000000000000000000000000000011111111111111111111
1111111111111111110000000000000000000000000000000000000000000000000000
0000000000000000000000000000000000000000000000000000000000000000000000
0000000000000000000000000000000000000000011111111111111111111111111111
1111111110000000000000000000000000000000000000000000000000000000000000
0000000000000000000000000000000000000000000000000000000000000000000000
0000000000000000000000000000000011111111111111111111111111111111111111
0000000000000000000000000000000000000000000000000000000000000000000000
0000000000000000000000000000000000000000000000000000000000000000000000
0000000000000000000000011111111111111111111111111111111111111000000000
0000000000000000000000000000000000000000000000000000000000000000000000
0000000000000000000000000000000000000000000000000000000000000000000000
0000000000000011111111111111111111111111111111111111000000000000000000
0000000000000000000000000000000000000000000000000000000000000000000000
0000000000000000000000000000000000000000000000000000000000000000000000
0000011111111111111111111111111111111111111100000000000000000000000000
0000000000000000000000000000000000000000000000000000000000000000000000
0000000000000000000000000000000000000000000000000000000000000000001111
1111111111111111111111111111111111100000000000000000000000000000000000
0000000000000000000000000000000000000000000000000000000000000000000000
0000000000000000000000000000000000000000000000000000000011111111111111
1111111111111111111111111100000000000000000000000000000000000000000000
0000000000000000000000000000000000000000000000000000000000000000000000
0000000000000000000000000000000000000000000000011111111111111111111111
1111111111111111100000000000000000000000000000000000000000000000000000
0000000000000000000000000000000000000000000000000000000000000000000000
0000000000000000000000000000000000000011111111111111111111111111111111
1111111100000000000000000000000000000000000000000000000000000000000000
0000000000000000000000000000000000000000000000000000000000000000000000
0000000000000000000000000000111111111111111111111111111111111111111110
0000000000000000000000000000000000000000000000000000000000000000000000
0000000000000000000000000000000000000000000000000000000000000000000000
0000000000000000000111111111111111111111111111111111111111110000000000
0000000000000000000000000000000000000000000000000000000000000000000000
0000000000000000000000000000000000000000000000000000000000000000000000
0000000000111111111111111111111111111111111111111110000000000000000000
0000000000000000000000000000000000000000000000000000000000000000000000
0000000000000000000000000000000000000000000000000000000000000000000000
0111111111111111111111111111111111111111110000000000000000000000000000
0000000000000000000000000000000000000000000000000000000000000000000000
0000000000000000000000000000000000000000000000000000000000000011111111
1111111111111111111111111111111100000000000000000000000000000000000000
0000000000000000000000000000000000000000000000000000000000000000000000
0000000000000000000000000000000000000000000000000000011111111111111111
1111111111111111111111100000000000000000000000000000000000000000000000
0000000000000000000000000000000000000000000000000000000000000000000000
0000000000000000000000000000000000000000000011111111111111111111111111
1111111111111000000000000000000000000000000000000000000000000000000000
0000000000000000000000000000000000000000000000000000000000000000000000
0000000000000000000000000000000000111111111111111111111111111111111111
1110000000000000000000000000000000000000000000000000000000000000000000
0000000000000000000000000000000000000000000000000000000000000000000000
0000000000000000000000000111111111111111111111111111111111111111000000
0000000000000000000000000000000000000000000000000000000000000000000000
0000000000000000000000000000000000000000000000000000000000000000000000
0000000000000000111111111111111111111111111111111111111000000000000000
0000000000000000000000000000000000000000000000000000000000000000000000
0000000000000000000000000000000000000000000000000000000000000000000000
0000000111111111111111111111111111111111111110000000000000000000000000
0000000000000000000000000000000000000000000000000000000000000000000000
0000000000000000000000000000000000000000000000000000000000000000000011
1111111111111111111111111111111111110000000000000000000000000000000000
0000000000000000000000000000000000000000000000000000000000000000000000
0000000000000000000000000000000000000000000000000000000000011111111111
1111111111111111111111111110000000000000000000000000000000000000000000
0000000000000000000000000000000000000000000000000000000000000000000000
0000000000000000000000000000000000000000000000000011111111111111111111
1111111111111111110000000000000000000000000000000000000000000000000000
0000000000000000000000000000000000000000000000000000000000000000000000
0000000000000000000000000000000000000000011111111111111111111111111111
1111111110000000000000000000000000000000000000000000000000000000000000
0000000000000000000000000000000000000000000000000000000000000000000000
0000000000000000000000000000000011111111111111111111111111111111111111
0000000000000000000000000000000000000000000000000000000000000000000000
0000000000000000000000000000000000000000000000000000000000000000000000
0000000000000000000000001111111111111111111111111111111111111000000000
0000000000000000000000000000000000000000000000000000000000000000000000
0000000000000000000000000000000000000000000000000000000000000000000000
0000000000000001111111111111111111111111111111111111000000000000000000
0000000000000000000000000000000000000000000000000000000000000000000000
0000000000000000000000000000000000000000000000000000000000000000000000
0000001111111111111111111111111111111111111000000000000000000000000000
0000000000000000000000000000000000000000000000000000000000000000000000
0000000000000000000000000000000000000000000000000000000000000000000111
1111111111111111111111111111111110000000000000000000000000000000000000
0000000000000000000000000000000000000000000000000000000000000000000000
0000000000000000000000000000000000000000000000000000000000111111111111
1111111111111111111111110000000000000000000000000000000000000000000000
0000000000000000000000000000000000000000000000000000000000000000000000
0000000000000000000000000000000000000000000000000111111111111111111111
1111111111111110000000000000000000000000000000000000000000000000000000
0000000000000000000000000000000000000000000000000000000000000000000000
0000000000000000000000000000000000000000111111111111111111111111111111
1111110000000000000000000000000000000000000000000000000000000000000000
0000000000000000000000000000000000000000000000000000000000000000000000
0000000000000000000000000000000111111111111111111111111111111111110000
0000000000000000000000000000000000000000000000000000000000000000000000
0000000000000000000000000000000000000000000000000000000000000000000000
0000000000000000000001111111111111111111111111111111111110000000000000
0000000000000000000000000000000000000000000000000000000000000000000000
0000000000000000000000000000000000000000000000000000000000000000000000
0000000000001111111111111111111111111111111111110000000000000000000000
0000000000000000000000000000000000000000000000000000000000000000000000
0000000000000000000000000000000000000000000000000000000000000000000000
0011111111111111111111111111111111111100000000000000000000000000000000
0000000000000000000000000000000000000000000000000000000000000000000000
0000000000000000000000000000000000000000000000000000000000000011111111
1111111111111111111111111111100000000000000000000000000000000000000000
0000000000000000000000000000000000000000000000000000000000000000000000
0000000000000000000000000000000000000000000000000000011111111111111111
1111111111111111111000000000000000000000000000000000000000000000000000
0000000000000000000000000000000000000000000000000000000000000000000000
0000000000000000000000000000000000000000000011111111111111111111111111
1111111111000000000000000000000000000000000000000000000000000000000000
0000000000000000000000000000000000000000000000000000000000000000000000
0000000000000000000000000000000000111111111111111111111111111111111111
1000000000000000000000000000000000000000000000000000000000000000000000
0000000000000000000000000000000000000000000000000000000000000000000000
0000000000000000000000000111111111111111111111111111111111111000000000
0000000000000000000000000000000000000000000000000000000000000000000000
0000000000000000000000000000000000000000000000000000000000000000000000
0000000000000000111111111111111111111111111111111111000000000000000000
0000000000000000000000000000000000000000000000000000000000000000000000
0000000000000000000000000000000000000000000000000000000000000000000000
0000000111111111111111111111111111111111111000000000000000000000000000
0000000000000000000000000000000000000000000000000000000000000000000000
0000000000000000000000000000000000000000000000000000000000000000000011
1111111111111111111111111111111110000000000000000000000000000000000000
0000000000000000000000000000000000000000000000000000000000000000000000
0000000000000000000000000000000000000000000000000000000000011111111111
1111111111111111111111110000000000000000000000000000000000000000000000
0000000000000000000000000000000000000000000000000000000000000000000000
0000000000000000000000000000000000000000000000000011111111111111111111
1111111111111110000000000000000000000000000000000000000000000000000000
0000000000000000000000000000000000000000000000000000000000000000000000
0000000000000000000000000000000000000000011111111111111111111111111111
1111100000000000000000000000000000000000000000000000000000000000000000
0000000000000000000000000000000000000000000000000000000000000000000000
0000000000000000000000000000000011111111111111111111111111111111110000
0000000000000000000000000000000000000000000000000000000000000000000000
0000000000000000000000000000000000000000000000000000000000000000000000
0000000000000000000000111111111111111111111111111111111110000000000000
0000000000000000000000000000000000000000000000000000000000000000000000
0000000000000000000000000000000000000000000000000000000000000000000000
0000000000000111111111111111111111111111111111110000000000000000000000
0000000000000000000000000000000000000000000000000000000000000000000000
0000000000000000000000000000000000000000000000000000000000000000000000
0000111111111111111111111111111111111110000000000000000000000000000000
0000000000000000000000000000000000000000000000000000000000000000000000
0000000000000000000000000000000000000000000000000000000000000000011111
1111111111111111111111111111110000000000000000000000000000000000000000
0000000000000000000000000000000000000000000000000000000000000000000000
0000000000000000000000000000000000000000000000000000000111111111111111
1111111111111111111100000000000000000000000000000000000000000000000000
0000000000000000000000000000000000000000000000000000000000000000000000
0000000000000000000000000000000000000000000000111111111111111111111111
1111111111000000000000000000000000000000000000000000000000000000000000
0000000000000000000000000000000000000000000000000000000000000000000000
0000000000000000000000000000000000000111111111111111111111111111111111
1000000000000000000000000000000000000000000000000000000000000000000000
0000000000000000000000000000000000000000000000000000000000000000000000
0000000000000000000000000001111111111111111111111111111111111000000000
0000000000000000000000000000000000000000000000000000000000000000000000
0000000000000000000000000000000000000000000000000000000000000000000000
0000000000000000001111111111111111111111111111111110000000000000000000
0000000000000000000000000000000000000000000000000000000000000000000000
0000000000000000000000000000000000000000000000000000000000000000000000
0000000011111111111111111111111111111111110000000000000000000000000000
0000000000000000000000000000000000000000000000000000000000000000000000
0000000000000000000000000000000000000000000000000000000000000000000001
1111111111111111111111111111111110000000000000000000000000000000000000
0000000000000000000000000000000000000000000000000000000000000000000000
0000000000000000000000000000000000000000000000000000000000001111111111
1111111111111111111111100000000000000000000000000000000000000000000000
0000000000000000000000000000000000000000000000000000000000000000000000
0000000000000000000000000000000000000000000000000011111111111111111111
1111111111111100000000000000000000000000000000000000000000000000000000
0000000000000000000000000000000000000000000000000000000000000000000000
0000000000000000000000000000000000000000011111111111111111111111111111
1111100000000000000000000000000000000000000000000000000000000000000000
0000000000000000000000000000000000000000000000000000000000000000000000
0000000000000010000000000000000011111111111111111111111111111111110000
0000000000000000000000000000000000000000000000000000000000000000000000
0000000000000000000000000000000000000000000000000000000000000000000000
0000000000000000000000111111111111111111111111111111111110000000000000
0000000000000000000000000000000000000000000000000000000000000000000000
0000000000000000000000000000000000000000000000000000000000001100000000
0000000000000111111111111111111111111111111111110000000000000000000000
0000000000000000000000000000000000000000000000000000000000000000000000
0000000000000000000000000000000000000000000000000100000000000000000000
0000111111111111111111111111111111111110000000000000000000000000000000
0000000000000000000000000000000000000000000000000000000000000000000000
0000000000000000000000000000000000000000000000000000000100000000111111
1111111111111111111111111111110000000000000000000000000000000000000000
0000000000000000000000000000000000000000000000000000000000000000000000
0000000000000000000000000000000000000000000000000000000111111111111111
1111111111111111111110000000000000000000000000000000000000000000000000
0000000000000000000000000000000000000000000000000000000000000000000000
0000000000000000001110000000000010000000000000111111111111111111111111
1111111111110000000000000000000000000000000000000000000000000000000000
0000000000000000000000000000000000000000000000000000000000000000000000
0000000111110000000000100000000000000111111111111111111111111111111111
1111100000000000000000000000000000000000000000000000000000000000000000
0000000000000000000000000000000000000000000000000000000000000000000011
1110000000000000000000100000111111111111111111111111111111111111110000
0000000000000000000000000000000000000000000000000000000000000000000000
0000000000000000000000000000000000000000000000000000000000111110000000
0101111110001000000111111111111111111111111111111111111110000000000000
0000000000000000000000000000000000000000000000000000000000000000000000
0000000000000000000000000000000000000000000000100111100001101011111110
0000011001111111111111111111111111111111111111110000000000000000000000
0000000000000000000000000000000000000000000000000000000000000000000000
0000000000000000000000000000000000000001111100100000111111100000111101
1111111111111111111111111111111111111110000000000000000000000000000000
0000000000000000000000000000000000000000000000000000000000000000000000
0000000000000000000000000000011111000001001111110001101111001111111111
1111111111111111111111111111100000000000000000000000000000000000000000
0000000000000000000000000000000000000000000000000000000000000000000000
0000000000000011000011110101100001111000110011110011111111111111111111
1111111111111111111100000000000000000000000000000000000000000000000000
0000000000000000000000000000000000000000000000000000000000000000000000
0000000000111110110000001110001100111100111111111111111111111111111111
1111111111100000000000000000000000000000000000000000000000000000000000
0000000000000000000000000000000000000000000000000000000000000000000000
0000100000000001100001001111000111111111111111111111111111111111111111
1000000000000000000000000000000000000000000000000000000000000000000000
0000000000000000000000000000000000000000000000000000000011110111000000
0000000000000001110000111111111111111111111111111111111111111000000000
0000000000000000000000000000000000000000000000000000000000000000000000
0000000000000000000000000000000000000000000000111100011110000000000000
0000001100001111111111111111111111111111111111111111000000000000000000
0000000000000000000000000000000000000000000000000000000000000000000000
0000000000000000000000000000000000010000000000000000001000000000000000
0001111111111111111111111111111111111111110000000000000000000000000000
0000000000000000000000000000000000000000000000000000000000000000000000
0000000000000000000000000000000000000000000010000000000000000000111111
1111111111111111111111111111111100000000000000000000000000000000000000
0000000000000000000000000000000000000000000000000000000000000000000000
0000000000000000000011110011001010000110000000000000000111111111111111
1111111111111111111111100000000000000000000000000000000000000000000000
0000000000000000000000000000000000000000000000000000000000000000000000
0000000001111100000000000011110000000000000000111111111111111111111111
1111111111111100000000000000000000000000000000000000000000000000000000
0000000000000000000000000000000000000000000000000000000011000000000001
1110000000000000111100000000000000000111111111111111111111111111111111
1111000000000000000000000000000000000000000000000000000000000000000000
0000000000000000000000000000000000000000000000000000000001111110111000
0000011111000000000000000000111111111111111111111111111111111111100000
0000000000000000000000000000000000000000000000000000000000000000000000
0000000000000000000000000000000000000000000000111111110000000001001111
0000000000000000000111111111111111111111111111111111111000000000000000
0000000000000000000000000000000000000000000000000000000000000000000000
0000000000000000000000000000000000010111110100000000010011110000000000
0000000000111111111111111111111111111111111111000000000000000000000000
0000000000000000000000000000000000000000000000000000000000000000000000
0000000000000011000100000111111110000000000000011100000000000000000000
0111111111111111111111111111111111111000000000000000000000000000000000
0000000000000000000000000000000000000000000000000000000000000000000000
0000000000000000111111111000000000000011000000000000000000000011111111
1111111111111111111111111111000000000000000000000000000000000000000000
0000000000000000000000000000000000000000000000000000000000000000000000
0000111111110000000000000000000000000000000000000000000111111111111111
1111111111111111110000000000000000000000000000000000000000000000000000
0000000000000000000000000000000000000000000000000000000000000000011111
1110100000111100000000000000000000000000000000111111111111111111111111
1111111110000000000000000000000000000000000000000000000000000000000000
0000000000000000000000000000000000000000000000010000011111100000000000
0000000000000000000000000000000000000111111111111111111111111111111111
0000000000000000000000000000000000000000000000000000000000000000000000
0000000000000000000000000000000000000000000011110010000000100000000000
0000000000000000000000000000111111111111111111111111111111110000000000
0000000000000000000000000000000000000000000000000000000000000000000000
0000000000000000000110000000011111010010011000010000001000000000000000
0000000000000000001111111111111111111111111111111110000000000000000000
0000000000000000000000000000000000000000000000000000000000000000000000
0000000010000000000111111011111010000001110010000000000000000000000000
0000000001111111111111111111111111111111110000000000000000000000000000
0000000000000000000000000000000000000000000000000000000000000000000000
0000000101111100000000000000000000000000000000000000000000000000000001
1111111111111111111111111111111100000000000000000000000000000000000000
0000000000000000000000000000000000000000000000000000000000000000000001
1111100000000000100000000000000000000000000000000000000000001111111111
1111111111111111111111100000000000000000000000000000000000000000000000
0000000000000000000000000000000000000000000000000000000001111111111000
0000010000001000000000000000000000000000000000000011111111111111111111
1111111111111100000000000000000000000000000000000000000000000000000000
0000000000000000000000000000000000000000000000111111110000000000000000
0010000000000000000000000000000000000000011111111111111111111111111111
1111100000000000000000000000000000000000000000000000000000000000000000
0000000000000000000000000000000000010111111100000000000000000000000000
0000000000000000000000000000000111111111111111111111111111111111110000
0000000000000000000000000000000000000000000000000000000000000000000000
0000000000000000000100000011111111111100000000000000000000000000000000
0000000000000000000001111111111111111111111111111111111100000000000000
0000000000000000000000000000000000000000000000000000000000000000000000
0000000000000000111111111111000000001100000000000000000000000001000000
0100000000001111111111111111111111111111111111000000000000000000000000
0000000000000000000000000000000000000000000000000000000000000000000000
0000000111111111110000000000000000000000000000000000011000001100000000
0001111111111111111111111111111111110000000000000000000000000000000000
0000000000000000000000000000000000000000000000000000100000000000000011
1111111000110000000000000000000000000000000111000111000000000001111111
1111111111111111111111111100000000000000000000000000000000000000000000
0000000000000000000000000000000000000000000000000000000011100011110001
1000000000000000000000000000000010111011100000000000001111111111111111
1111111111111111000000000000000000000000000000000000000000000000000000
0000000000000000000000000000000000010000000001000010011100110000000000
0000000000000000000011010111110000000000000011111111111111111111111111
1111110000000000000000000000000000000000000000000000000000000000000000
0000000000000000000000000100000000000000010000000000001000000000000000
0000000001011010111000000000000000011111111111111111111111111111110000
0000000000000000000000000000000000000000000000000000000000000000000000
0000000000000000100000010000110000000000000010000000000000000000000010
1011011111000000000000000011111111111111111111111111111110000000000000
0000000000000000000000000000000000000000000000000000000000000000000000
0000001100000000000000000000000000000000000000000000000001010101111011
1000000000000000011111111111111111111111111111100000000000000000000000
0000000000000000000000000000000000000000000000000000000000000000000000
0000001000000000000000000000000000000000000000101010111101011100000000
0000000111111111111111111111111111111000000000000000000000000000000000
0000000000000000000000000000000000000000000000000000111101000000000100
0000000011000000000000000000000000001101010111101011000000000000000011
1111111111111111111111111111000000000000000000000000000000000000000000
0000000000000000000000000000000000000000001111000000000000001000000100
0000000000000000000000000011101011101101010000000000000000011111111111
1111111111111111110000000000000000000000000000000000000000000000000000
0000000000000000000000000000000111110000000000000010000001000000000000
0000000000000001011101110101101000000000000000000111111111111111111111
1111111100000000000000000000000000000000000000000000000000000000000000
0000000000000000000001111000000000101100000110000000000000000000000000
0000101011111010101100000000000000000000111111111111111111111111111100
0000000000000000000000000000000000000000000000000000000000000000000000
0000000000011111000100000111110011111100000000000000000000000001010101
1101010100000000000000000000000111111111111111111111111111100000000000
0000000000000000000000000000000000000000000000000000000000000000000000
0111000010000000000000111100000000000000000000000000101010111110101000
0000000000000000000001111111111111111111111111111100000000000000000000
0000000000000000000000000000000000000000000000000000000000001111000001
1111000000001111000000000000000000000000010101011101110100000000000000
0000000000001111111111111111111111111111100000000000000000000000000000
0000000000000000000000000000000000000000000000000011100010000000000011
1111110000000000000000000000000110101111101110000000000000000000000000
0001111111111111111111111111111000000000000000000000000000000000000000
0000000000000000000000000000000000000000010000000000011001111111110000
0000000000000000000010110111110101100000000000000000000000000000111111
1111111111111111111110000000000000000000000000000000000000000000000000
0000000000000000000000000000000110000000000000001111011100000000000000
0000000000110110111010101000000000000000000000000000001111111111111111
1111111111100000000000000000000000000000000000000000000000000000000000
0000000000000000000000000000000100000011111011000000000000000000000001
0110111101010100000000000000000000000000000001111111111111111111111111
1100000000000000000000000000000000000000000000000000000000000000000000
0000000111101000000000000001111000000000000000000000000000101011111010
1010000000000000000000000000000000011111111111111111111111111100000000
0000000000000000000000000000000000000000000000000000000000000000000111
1000000000000000011110100000000000000000000000001101011111010100000000
0000000000000000000000000111111111111111111111111111000000000000000000
0000000000000000000000000000000000000000000000000000000011111000000100
1100000111101000000000000000000000000101101111011010000000000000000000
0000000000000001111111111111111111111111100000000000000000000000000000
0000000000000000000000000000000000000000000000111100010000110000000111
1000000000000000000000000011101111111011000000000000000000000000000000
0000011111111111111111111111110000000000000000000000000000000000000000
0000000000000000000000000000000000001111000000000000000000000000000000
0000000000000001011101111011010000000000000000000000000000000000011111
1111111111111111111100000000000000000000000000000000000000000000000000
0000000000000000000000000011100001000000000000000000000000000000000000
0000101011111101011000000000000000000000000000000000000111111111111111
1111111110000000000000000000000000000000000000000000000000000000000000
0000000000000000111000001111100011110000000000000000000000000000110101
1111101010000000000000000000000000000000000000111111111111111111111100
0000000000000000000000000000000000000000000000000000000000000000000000
0000001100010000000001111100000000000000000000000000001110111110110100
0000000000000000000000000000000000001111111111111111111110000000000000
0000000000000000000000000000000000000000000000000000000000000000000000
0000000000001111000000000000000000000000000101111111110110000000000000
0000000000000000000000000011111111111111111111000000000000000000000000
0000000000000000000000000000000000000000000000000000000000000000000000
0011100000000000000000000000000010101111101110100000000000000000000000
0000000000000000011111111111111111100000000000000000000000000000000000
0000000000000000000000000000000000000000000000000000000000000111100000
0000000000000000000001010101110101110000000000000000000000000000000000
0000000111111111111111110000000000000000000000000000000000000000000000
0000000000000000000000000000000000000000000000000001111000000000000000
0000000000011010111110101100000000000000000000000000000000000000000111
1111111111111000000000000000000000000000000000000000000000000000000000
0000000000000000000000000000000100000000011110000000000000000000000000
1011011111110100000000000000000000000000000000000000000001111111111111
1100000000000000000000000000000000000000000000000000000000000000000000
0000000000000000000000110000000111100000000000000000000000110101111110
1110000000000000000000000000000000000000000000011111111111111000000000
0000000000000000000000000000000000000000000000000000000000000000000000
0000000000000000000000000000000000000000000011110110111111010110000000
0000000000000000000000000000000000000011111111111100000000000000000000
0000000000000000000000000000000000000000000000000000000000000000000000
0000000000000000000000000000000001011110111111101010100000000000000000
0000000000000000000000000000001111111110000000000000000000000000000000
0000000000000000000000000000000000000000000000000000000000000000000000
0000000000000000000000001011111111101101010000000000000000000000000000
0000000000000000000011111111000000000000000000000000000000000000000000
0000000000000000000000000000000000000000000000000000000000000000000000
0000000000000001011111110101101000000000000000000000000000000000000000
0000000000111111100000000000000000000000000000000000000000000000000000
0000000000000000000000000000000000000000000000000000000000000000000000
0000001011111110101100000000000000000000000000000000000000000000000000
1111110000000000000000000000000000000000000000000000000000000000000000
0000000000000000000000000000000000000000000000000000000000000000000111
1110110101000000000000000000000000000000000000000000000000000111000000
0000000000000000000000000000000000000000000000000000000000000000000000
0000000000000000000000000000000000000000000000000000000011111111011010
0000000000000000000000000000000000000000000000000001100000000000000000
0000000000000000000000000000000000000000000000000000000000000000000000
0000000000000000000000000000000000000000000001111101111011000000000000
0000000000000000000000000000000000000000000000000000000000000000000000
0000000000000000000000000000000000000000000000000000000000000000000000
0000000000000000000000000000000000111100101111000000000000000000000000
0000000000000000000000000000000000000000000000000000000000000000000000
0000000000000000000000000000000000000000000000000000000000000000000000
0000000000000000000000010000000100000000000000000000000000000000000000
0000000000000000000000000000000000000000000000000000000000000000000000
0000000000000000000000000000000000000000000000000000000000000000000000
0000000000000000000000000000000000000000000000000000000000000000000000
0000000000000000000000000000000000000000000000000000000000000000000000
0000000000000000000000000000000000000000000000000000000000000000000000
0000000000000000000000000000000000000000000000000000000000000000000000
0000000000000000000000000000000000000000000000000000000000000000000000
0000000000000000000000000000000000000000000000000000000000000000000000
0000000000000000000000000000000000000000000000000000000000000000000000
0000000000000000000000000000000000000000000000000000000000000000000000
0000000000000000000000000000000000000000000000000000000000000000000000
0000000000000000000000000000000000000000000000000000000000000000000000
0000000000000000000000000000000000000000000000000000000000000000000000
0000000000000000000000000000000000000000000000000000000000000000000000
0000000000000000000000000000000000000000000000000000000000000000000000
0000000000000000000000000000000000000000000000000000000000000000000000
0000000000000000000000000000000000000000000000000000000000000000000000
0000000000000000000000000000000000000000000000000000000000000000000000
0000000000000000000000000000000000000000000000000000000000000000000000
0000000000000000000000000000000000000000000000000000000000000000000000
0000000000000000000000000000000000000000000000000000000000000000000000
0000000000000000000000000000000000000000000000000000000000000000000000
0000000000000000000000000000000000000000000000000000000000000000000000
0000000000000000000000000000000000000000000000000000000000000000000000
0000000000000000000000000000000000000000000000000000000000000000000000
0000000000000000000000000000000000000000000000000000000000000000000000
0000000000000000000000000000000000000000000000000000000000000000000000
0000000000000000000000000000000000000000000000000000000000000000000000
0000000000000000000000000000000000000000000000000000000000000000000000
0000000000000000000000000000000000000000000000000000000000000000000000
0000000000000000000000000000000000000000000000000000000000000000000000
0000000000000000000000000000000000000000000000000000000000000000000000
0000000000000000000000000000000000000000000000000000000000000000000000
0000000000000000000000000000000000000000000000000000000000000000000000
0000000000000000000000000000000000000000000000000000000000000000000000
0000000000000000000000000000000000000000000000000000000000000000000000
0000000000000000000000000000000000000000000000000000000000000000000000
0000000000000000000000000000000000000000000000000000000000000000000000
0000000000000000000000000000000000000000000000000000000000000000000000
0000000000000000000000000000000000000000000000000000000000000000000000
0000000000000000000000000000000000000000000000000000000000000000000000
0000000000000000000000000000000000000000000000000000000000000000000000
0000000000000000000000000000000000000000000000000000000000000000000000
0000000000000000000000000000000000000000000000000000000000000000000000
0000000000000000000000000000000000000000000000000000000000000000000000
0000000000000000000000000000000000000000000000000000000000000000000000
000000000000000000000000000000