P1
# CREATOR: GIMP PNM Filter Version 1.1
200 200
0000000000000000000000000000000000000000000000000000000000000000000000
0000000000000000000000000000000000000000000000000000000000000000000000
0000000000000000000000000000000000000000000000000000000000000000000000
0000000000000000000000000000000000000000000000000000000000000000000000
0000000000000000000000000000000000000000000000000000000000000000000000
0000000000000000000000000000000000000000000000000000000000000000000000
0000000000000000000000000000000000000000000000000000000000000000000000
0000000000000000000000000000000000000000000000000000000000000000000000
0000000000000000000000000000000000000000000000000000000000000000000000
0000000000000000000000000000000000000000000000000000000000000000000000
0000000000000000000000000000000000000000000000000000000000000000000000
0000000000000000000000000000000000000000000000000000000000000000000000
0000000000000000000000000000000000000000000000000000000000000000000000
0000000000000000000000000000000000000000000000000000000000000000000000
0000000000000000000000000000000000000000000000000000000000000000000000
0000000000000000000000000000000000000000000000000000000000000000000000
0000000000000000000000000000000000000000000000000000000000000000000000
0000000000000000000000000000000000000000000000000000000000000000000000
0000000000000000000000000000000000000000000000000000000000000000000000
0000000000000000000000000000000000000000000000000000000000000000000000
0000000000000000000000000000000000000000000000000000000000000000000000
0000000000000000000000000000000000000000000000000000000000000000000000
0000000000000000000000000000000000000000000000000000000000000000000000
0000000000000000000000000000000000000000000000000000000000000000000000
0000000000000000000000000000000000000000000000000000000000000000000000
0000000000000000000000000000000000000000000000000000000000000000000000
0000000000000000000000000000000000000000000000000000000000000000000000
0000000000000000000000000000000000000000000000000000000000000000000000
0000000000000000000000000000000000000000000000000000000000000000000000
0000000000000000000000000000000000000000000000000000000000000000000000
0000000000000000000000000000000000000000000000000000000000000000000000
0000000000000000000000000000000000000000000000000000000000000000000000
0000000000000000000000000000000000000000000000000000000000000000000000
0000000000000000000000000000000000000000000000000000000000000000000000
0000000000000000000000000000000000000000000000000000000000000000000000
0000000000000000000000000000000000000000000000000000000000000000000000
0000000000000000000000000000000000000000000000000000000000000000000000
0000000000000000000000000000000000000000000000000000000000000000000000
0000000000000000000000000000000000000000000000000000000000000000000000
0000000000000000000000000000000000000000000000000000000000000000000000
0000000000000000000000000000000000000000000000000000000000000000000000
0000000000000000000000000000000000000000000000000000000000000000000000
0000000000000000000000000000000000000000000000000000000000000000000000
0000000000000000000000000000000000000000000000000000000000000000000000
0000000000000000000000000000000000000000000000000000000000000000000000
0000000000000000000000000000000000000000000000000000000000000000000000
0000000000000000000000000000000000000000000000000000000000000000000000
0000000000000000000000000000000000000000000000000000000000000000000000
0000000000000000000000000000000000000000000000000000000000000000000000
0000000000000000000000000000000000000000000000000000000000000000000000
0000000000000000000000000000000000000000000000000000000000000000000000
0000000000000000000000000000000000000000000000000000000000000000000000
0000000000000000000000000000000000000000000000000000000000000000000000
0000000000000000000000000000000000000000000000000000000000000000000000
0000000000000000000000000000000000000000000000000000000000000000000000
0000000000000000000000000000000000000000000000000000000000000000000000
0000000000000000000000000000000000000000000000000000000000000000000000
0000000000000000000000000000000000000000000000000000000000000000000000
0000000000000000000000000000000000000000000000000000000000000000000000
0000000000000000000000000000000000000000000000000000000000000000000000
0000000000000000000000000000000000000000000000000000000000000000000000
0000000000000000000000000000000000000000000000000000000000000000000000
0000000000000000000000000000000000000000000000000000000000000000000000
0000000000000000000000000000000000000000000000000000000000000000000000
0000000000000000000000000000000000000000000000000000000000000000000000
0000000000000000000000000000000000000000000000000000000000000000000000
0000000000000000000000000000000000000000000000000000000000000000000000
0000000000000000000000000000000000000000000000000000000000000000000000
0000000000000000000000000000000000000000000000000000000000000000000000
0000000000000000000000000000000000000000000000000000000000000000000000
0000000000000000000000000000000000000000000000000000000000000000000000
0000000000000000000000000000000000000000000000000000000000000000000000
0000000000000000000000000000000000000000000000000000000000000000000000
0000000000000000000000000000000000000000000000000000000000000000000000
0000000000000000000000000000000000000000000000000000000000000000000000
0000000000000000000000000000000000000000000000000000000000000000000000
0000000000000000000000000000000000000000000000000000000000000000000000
0000000000000000000000000000000000000000000000000000000000000000000000
0000000000000000000000000000000000000000000000000000000000000000000000
0000000000000000000000000000000000000000000000000000000000000000000000
0000000000000000000000000000000000000000000000000000000000000000000000
0000000000000000000000000000000000000000000000000000000000000000000000
0000000000000000000000000000000000000000000000000000000000000000000000
0000000000000000000000000000000000000000000000000000000000000000000000
0000000000000000000000000000000000000000000000000000000000000000000000
0000000000000000000000000000000000000000000000000000000000000000000000
0000000000000000000000000000000000000000000000000000000000000000000000
0000000000000000000000000000000000000000000000000000000000000000000000
0000000000000000000000000000000000000000000000000000000000000000000000
0000000000000000000000000000000000000000000000000000000000000000000000
0000000000000000000000000000000000000000000000000000000000000000000000
0000000000000000000000000000000000000000000000000000000000000000000000
0000000000000000000000000000000000000000000000000000000000000000000000
0000000000000000000000000000000000000000000000000000000000000000000000
0000000000000000000000000000000000000000000000000000000000000000000000
0000000000000000000000000000000000000000000000000000000000000000000000
0000000000000000000000000000000000000000000000000000000000000000000000
0000000000000000000000000000000000000000000000000000000000000000000000
0000000000000000000000000000000000000000000000000000000000000000000000
0000000000000000000000000000000000000000000000000000000000000000000000
0000000000000000000000000000000000000000000000000000000000000000000000
0000000000000000000000000000000000000000000000000000000000000000000000
0000000000000000000000000000000000000000000000000000000000000000000000
0000000000000000000000000000000000000000000000000000000000000110111110
1110100000000000000000000000000000000000000000000000000000000000000000
0000000000000000000000000000000000000000000000000000000000000000000000
0000000000000000000000000000000000000000000000011111111111111111111111
1111111111010000000000000000000000000000000000000000000000000000000000
0000000000000000000000000000000000000000000000000000000000000000000000
0000000000000000000000000000000000111111111111111111111111111111111111
1111000000000000000000000000000000000000000000000000000000000000000000
0000000000000000000000000000000000000000000000000000000000000000000000
0000000000000000000001111111111111111111111111111111111111111111111000
0000000000000000000000000000000000000000000000000000000000000000000000
0000000000000000000000000000000000000000000000000000000000000000000000
0000000111111111111111111111111111111111111111111111111110000000000000
0000000000000000000000000000000000000000000000000000000000000000000000
0000000000000000000000000000000000000000000000000000000000000111111111
1111111111111111111111111111111111111111111111111100000000000000000000
0000000000000000000000000000000000000000000000000000000000000000000000
0000000000000000000000000000000000000000000000001111111111111111111111
1111111111111111111111111111111111111111110000000000000000000000000000
0000000000000000000000000000000000000000000000000000000000000000000000
0000000000000000000000000000000000011111111111111111111111111111111111
1111111111111111111111111111111111100000000000000000000000000000000000
0000000000000000000000000000000000000000000000000000000000000000000000
0000000000000000000000001111111111111111111111111111111111111111111111
1111111111111111111111111100000000000000000000000000000000000000000000
0000000000000000000000000000000000000000000000000000000000000000000000
0000000000000111111111111111111111111111111111111111111111111111111111
1111111111111111110000000000000000000000000000000000000000000000000000
0000000000000000000000000000000000000000000000000000000000000000000000
0011111111111111111111111111111111111111111111111111111111111111111111
1111111111000000000000000000000000000000000000000000000000000000000000
0000000000000000000000000000000000000000000000000000000000000111111111
1111111111111111111111111111101111111111111111111111111111111111111111
1100000000000000000000000000000000000000000000000000000000000000000000
0000000000000000000000000000000000000000000000000011111111111111111111
1111111111000000000000000000101010010011111111111111111111111110000000
0000000000000000000000000000000000000000000000000000000000000000000000
0000000000000000000000000000000000000001111111111111111111111111111000
0000000000000000000000000000000111111111111111111111111000000000000000
0000000000000000000000000000000000000000000000000000000000000000000000
0000000000000000000000000001111111111111111111111111100000000000000000
0000000000000000000000111111111111111111111111100000000000000000000000
0000000000000000000000000000000000000000000000000000000000000000000000
0000000000000000011111111111111111111110100000000000000000000000000000
0000000000000001111111111111111111111100000000000000000000000000000000
0000000000000000000000000000000000000000000000000000000000000000000000
0000001111111111111111100000000000000000000000000000000000000000000000
0000000111111111111111111111110000000000000000000000000000000000000000
0000000000000000000000000000000000000000000000000000000000000000011111
1111111111110000000000000000000000000000000000000000000000000000000001
1111111111111111111111000000000000000000000000000000000000000000000000
0000000000000000000000000000000000000000000000000000001111111111111111
0000000000000000000000000000000000000000000000000000000000000111111111
1111111111111100000000000000000000000000000000000000000000000000000000
0000000000000000000000000000000000000000000011111111111111100000000000
0000000000000000000000000000000000000000000000000000011111111111111111
1111110000000000000000000000000000000000000000000000000000000000000000
0000000000000000000000000000000001111111111111110000000000000000000000
0000000000000000000000000000000000000000000011111111111111111111111000
0000000000000000000000000000000000000000000000000000000000000000000000
0000000000000000000000011111111111111000000000000000000000000000000000
0000000000000000000000000000000000001111111111111111111111100000000000
0000000000000000000000000000000000000000000000000000000000000000000000
0000000000001111111111111100000000000000000000000000000000000000000000
0000000000000000000000000000111111111111111111111110000000000000000000
0000000000000000000000000000000000000000000000000000000000000000000000
0011111111111110000000000000000000000000000000000000000000000000000000
0000000000000000000011111111111111111111111000000000000000000000000000
0000000000000000000000000000000000000000000000000000000000001111111111
1111000000000000000000000000000000001101111011111111111000000000000000
0000000000011111111111111111111111100000000000000000000000000000000000
0000000000000000000000000000000000000000000000001111111111111110000000
0000000000000000000000011111111111111111111111111000000000000000000000
0001111111111111111111111110000000000000000000000000000000000000000000
0000000000000000000000000000000000001111111111111111100000000000000000
0000000000011111111111111111111111111111000000000000000000000000011111
1111111111111111110000000000000000000000000000000000000000000000000000
0000000000000000000000000111111111111111111000000000000000000000000001
1111111111111111111111111111111000000000000000000000000011111111111111
1111111110000000000000000000000000000000000000000000000000000000000000
0000000000000011111111111111111100000000000000000000000000111111111111
1111111111111111111111100000000000000000000000001111111111111111111111
1000000000000000000000000000000000000000000000000000000000000000000000
0001111111111111111111000000000000000000000000001111111111111111111111
1111111111111110000000000000000000000000111111111111111111111100000000
0000000000000000000000000000000000000000000000000000000000000001111111
1111111111110000000000000000000000001111111111111111111111111111111111
1111110000000000000000000000000011111111111111111111110000000000000000
0000000000000000000000000000000000000000000000000000111111111111111111
1000000000000000000000000011111111111111111111111111111111111111111110
0000000000000000000000011111111111111111111111100000000000000000000000
0000000000000000000000000000000000000000001111111111111111110000000000
0000000000000011111111111111111111111111111111111111111111111000000000
0000000000000001111111111111111111111100000000000000000000000000000000
0000000000000000000000000000000011111111111111111100000000000000000000
0000111111111111111111111111111111111111111111111111000000000000000000
0000000011111111111111111111110000000000000000000000000000000000000000
0000000000000000000000111111111111111000000000000000000000000011111111
1111111111111111111111111111111111111111111100000000000000000000000001
1111111111111111111110000000000000000000000000000000000000000000000000
0000000000000111111111110000000000000000000000000000111111111111111111
1110111110100111111111111111111111100000000000000000000000000111111111
1111111111110000000000000000000000000000000000000000000000000000000000
0001111111110000000000000000000000000000111111111111111100000000000000
0000111111111111111111111110000000000000000000000000111111111111111111
1111000000000000000000000000000000000000000000000000000000000000111111
1000000000000000000000000000001111111111111111000000000000000000001111
1111111111111111110000000000000000000000000011111111111111111111100000
0000000000000000000000000000000000000000000000000000000011100000000000
0000000000000000001111111111111111100000000000000000000001111111111111
1111111110000000000000000000000000011111111111111111111100000000000000
0000000000000000000000000000000000000000000000000000000000000000000000
0000000111111111111111100000000000000000000000000111111111111111111111
1000000000000000000000000001111111111111111111110000000000000000000000
0000000000000000000000000000000000000000000000000000000000000000001111
1111111111111000000000000000000000000000011111111111111111111110000000
0000000000000000001111111111111111111100000000000000000000000000000000
0000000000000000000000000000000000000000000000000000000011111111111111
1000000000000000000000000000000001111111111111111111111000000000000000
0000000000011111111111111111110000000000000000000000000000000000000000
0000000000000000000000000000000000000000000011111111111111111000000000
0000000000000000000000000111111111111111111111000000000000000000000000
0001111111111111111100000000000000000000000000000000000000000000000000
0000000000000000000000000000000000111111111111111000000000000000000000
0000000000000000011111111111111111111100000000000000000000000000111111
1111111111110000000000000000000000000000000000000000000000000000000000
0000000000000000000000111111111111111110000000000000000000000000001011
1010000011111111111111111111000000000000000000000000000011111111111111
1110000000000000000000000000000000000000000000000000000000000000000000
0000000000001111111111111110000000000000000000000000001111111111100000
1111111111111111111000000000000000000000000000011111111111111111000000
0000000000000000000000000000000000000000000000000000000000000000000000
0111111111111111000000000000000000000000001111111111111100000111111111
1111111110000000000000000000000000000011111111111111111000000000000000
0000000000000000000000000000000000000000000000000000000000001111111111
1111110000000000000000000000000111111111111111100000111111111111111111
0000000000000000000000000000011111111111111111000000000000000000000000
0000000000000000000000000000000000000000000000000011111111111111000000
0000000000000000000011111111111111111000000011111111111111110000000000
0000000000000000000001111111111111111000000000000000000000000000000000
0000000000000000000000000000000000000001111111111111110000000000000000
0000000001111111111111111111000000001111111111111100000000000000000000
0000000000011111111111111110000000000000000000000000000000000000000000
0000000000000000000000000000011111111111111000000000000000000000000011
1111111111111111100000000000111111111110000000000000000000000000000000
0001111111111111110000000000000000000000000000000000000000000000000000
0000000000000000000111111111111000000000000000000000000001111111111111
1111111000000000001111111111110000000000000000000000000000000000111111
1111111100000000000000000000000000000000000000000000000000000000000000
0000000001111111111110000000000000000000000000011111111111111111111000
0000000011111111111100000000000000000000000000000000001111111111111100
0000000000000000000000000000000000000000000000000000000000000000000001
1111111111000000000000000000000000011111111111111111111100000000000011
1111111111000000000000000000000000000000000000111111111111100000000000
0000000000000000000000000000000000000000000000000000000000111111111111
0000000000000000000000000111111111111111111110000000000000111111111111
0000000000000000000000000000000000000111111111110000000000000000000000
0000000000000000000000000000000000000000000000001111111111110000000000
0000000000000011111111111111111110000000000000001111111111110000000000
0000000000000000000000000001111111111110000000000000000000000000000000
0000000000000000000000000000000000000111111111111100000000000000000000
0001111111111111110000000000000000000011111111111000000000000000000000
0000000000000000011111111111100000000000000000000000000000000000000000
0000000000000000000000000011111111111111000000000000000000000011111111
1111111000000000000000000000111111111111000000000000000000000000000000
0000000111111111111000000000000000000000000000000000000000000000000000
0000000000000001111111111111100000000000000000000000111111111111110000
0000000000000000001111111111110000000000000000000000000000000000000111
1111111110000000000000000000000000000000000000000000000000000000000000
0000011111111111111000000000000000000000011111111111111100000000000000
0000000001111111111100000000000000000000000000000000000001111111111110
0000000000000000000000000000000000000000000000000000000000000000111111
1111111100000000000000000000000111111111111110000000000000000000000011
1111111111000000000000000000000000000000000000011111111111100000000000
0000000000000000000000000000000000000000000000000000001111111111111100
0000000000000000000011111111111111000000000000000000000000011111111111
0000000000000000000000000000000000000111111111111000000000000000000000
0000000000000000000000000000000000000000000111111111111110000000000000
0000000000111111111111100000000000000000000000000111111111111000000000
0000000000000000000000000001111111111100000000000000000000000000000000
0000000000000000000000000000000001111111111111000000000000000000000000
1111111111110000000000000000000000000001111111111110000000000000000000
0000000000000000011111111111100000000000000000000000000000000000000000
0000000000000000000000011111111111100000000000000000000000001111111111
1000000000000000000000000000011111111111000000000000000000000000000000
0000000111111111111000000000000000000000000000000000000000000000000000
0000000000000111111111111000000000000000000000000011111111111000000000
0000000000000000000111111111111000000000000000000000000000000000000111
1111111110000000000000000000000000000000000000000000000000000000000000
0001111111111100000000000000000000000000111111111110000000000000000000
0000000001111111111110000000000000000000000000000000000001111111111100
0000000000000000000000000000000000000000000000000000000000000001111111
1111100000000000000000000000001111111111100000000000000000000000000001
1111111111100000000000000000000000000000000000011111111111000000000000
0000000000000000000000000000000000000000000000000000011111111111000000
0000000000000000000011111111111000000000000000000000000000011111111111
1000000000000000000000000000000000001111111111110000000000000000000000
0000000000000000000000000000000000000000000111111111111000000000000000
0000000001111111111110000000000000000000000000000111111111111000000000
0000000000000000000000000111111111111100000000000000000000000000000000
0000000000000000000000000000000001111111111110000000000000000000000001
1111111111100000000000000000000000000001111111111100000000000000000000
0000000000000011111111111111000000000000000000000000000000000000000000
0000000000000000000000011111111111100000000000000000000000011111111111
1000000000000000000000000000011111111111100000000000000000000000000000
0011111111111111100000000000000000000000000000000000000000000000000000
0000000000000111111111110000000000000000000000000111111111110000000000
0000000000000000000111111111110000000000000000000000000000000111111111
1111111000000000000000000000000000000000000000000000000000000000000000
0011111111111110000000000000000000000011111111111100000000000000000000
0000000001111111111100000000000000000000000000000111111111111111110000
0000000000000000000000000000000000000000000000000000000000000011111111
1111000000000000000000000000111111111111000000000000000000000000000011
1111111111000000000000000000000000000001111111111111111100000000000000
0000000000000000000000000000000000000000000000000001111111111111000000
0000000000000000001111111111110000000000000000000000000000111111111111
0000000000000000000000000001111111111111111110000000000000000000000000
0000000000000000000000000000000000000000011111111111100000000000000000
0000000111111111111000000000000000000000000000000111111111110000000000
0000000000000000011111111111111111000000000000000000000000000000000000
0000000000000000000000000000000111111111111000000000000000000000000111
1111111110000000000000000000000000000011111111111100000000000000000000
0000011111111111111111110000000000000000000000000000000000000000000000
0000000000000000000001111111111100000000000000000000000011111111111110
0000000000000000000000000000011111111111000000000000000000000000011111
1111111111110000000000000000000000000000000000000000000000000000000000
0000000000011111111111100000000000000000000000111111111111000000000000
0000000000000000000111111111110000000000000000000000011111111111111111
1000000000000000000000000000000000000000000000000000000000000000000000
0111111111110000000000000000000000001111111111110000000000000000000000
0000000011111111111100000000000000000000000111111111111111100000000000
0000000000000000000000000000000000000000000000000000000000000111111111
1110000000000000000000000011111111111100000000000000000000000000000011
1111111111000000000000000000000111111111111111110000000000000000000000
0000000000000000000000000000000000000000000000000001111111111100000000
0000000000000000111111111111110000000000000000000000000000111111111111
0000000000000000000001111111111111110000000000000000000000000000000000
0000000000000000000000000000000000000000011111111111100000000000000000
0000001111111111111111000000000000000000000000111111111111110000000000
0000000001111111111111111100000000000000000000000000000000000000000000
0000000000000000000000000000000111111111111000000000000000000000001111
1111111111111000000000000000000000011111111111111000000000000000000011
1111111111111100000000000000000000000000000000000000000000000000000000
0000000000000000000001111111111110000000000000000000000001111111111111
1111100000000000000000011111111111111110000000000000000001111111111111
1111000000000000000000000000000000000000000000000000000000000000000000
0000000000011111111111100000000000000000000000011111111111111111111000
0000000000011111111111111111000000000000000001111111111111111100000000
0000000000000000000000000000000000000000000000000000000000000000000000
0111111111111000000000000000000000000011111111111111111111000000000001
1111111111111111110000000000000000111111111111111111000000000000000000
0000000000000000000000000000000000000000000000000000000000000111111111
1110000000000000000000000000011111111111111111111100000001111111111111
1111111000000000000000111111111111111111100000000000000000000000000000
0000000000000000000000000000000000000000000000000001111111111110000000
0000000000000000000011111111111111111111111111111111111111111111111000
0000000000011111111111111111110000000000000000000000000000000000000000
0000000000000000000000000000000000000000011111111111000000000000000000
0000000000011111111111111111111111111111111111111111111100000000000000
1111111111111111111000000000000000000000000000000000000000000000000000
0000000000000000000000000000000111111111111000000000000000000000000000
0001111111111111111111111111111111111111111100000000000000111111111111
1111111100000000000000000000000000000000000000000000000000000000000000
0000000000000000000001111111111110000000000000000000000000000000011111
1111111111111111111111111111111110000000000000011111111111111111110000
0000000000000000000000000000000000000000000000000000000000000000000000
0000000000011111111111100000000000000000000000000000000011111111111111
1111111111111111111111000000000000000111111111111111111000000000000000
0000000000000000000000000000000000000000000000000000000000000000000000
0011111111111000000000000000000000000000000000001111111111111111111111
1111111111000000000000000111111111111111111100000000000000000000000000
0000000000000000000000000000000000000000000000000000000000000011111111
1111000000000000000000000000000000000001111111111111111111111111111101
0000000000000011111111111111111100000000000000000000000000000000000000
0000000000000000000000000000000000000000000000000000111111111111000000
0000000000000000000000000000000111111111111111111111111100000000000000
0011111111111111111110000000000000000000000000000000000000000000000000
0000000000000000000000000000000000000000001111111111110000000000000000
0000000000000000000000011111111111111111111110000000000000000111111111
1111111110000000000000000000000000000000000000000000000000000000000000
0000000000000000000000000000000001111111111110000000000000000000000000
0000000000000001111111111111111110000000000000000011111111111111111100
0000000000000000000000000000000000000000000000000000000000000000000000
0000000000000000000000011111111111100000000000000000000000000000000000
0000000011111111111110000000000000000001111111111111111110000000000000
0000000000000000000000000000000000000000000000000000000000000000000000
0000000000000111111111111100000000000000000000000000000000000000000000
0111111000000000000000000000111111111111111110000000000000000000000000
0000000000000000000000000000000000000000000000000000000000000000000000
0000111111111111100000000000000000000000000000000000000000000000000000
0000000000000000011111111111111111100000000000000000000000000000000000
0000000000000000000000000000000000000000000000000000000000000000111111
1111111110000000000000000000000000000000000000000000000000000000000000
0000001111111111111111100000000000000000000000000000000000000000000000
0000000000000000000000000000000000000000000000000000001111111111111111
0000000000000000000000000000000000000000000000000000000000000000001111
1111111111110000000000000000000000000000000000000000000000000000000000
0000000000000000000000000000000000000000000001111111111111111100000000
0000000000000000000000000000000000000000000000000000001111111111111111
0000000000000000000000000000000000000000000000000000000000000000000000
0000000000000000000000000000000000011111111111111111110000000000000000
0000000000000000000000000000000000000000000011111111111111110000000000
0000000000000000000000000000000000000000000000000000000000000000000000
0000000000000000000000000011111111111111111111000000000000000000000000
0000000000000000000000000000000011111111111111110000000000000000000000
0000000000000000000000000000000000000000000000000000000000000000000000
0000000000000000111111111111111111111000000000000000000000000000000000
0000000000000000000000111111111111111000000000000000000000000000000000
0000000000000000000000000000000000000000000000000000000000000000000000
0000000111111111111111111111000000000000000000000000000000000000000000
0000000000011111111111111100000000000000000000000000000000000000000000
0000000000000000000000000000000000000000000000000000000000000000000001
1111111111111111111000000000000000000000000000000000000000000000000000
1111111111111110000000000000000000000000000000000000000000000000000000
0000000000000000000000000000000000000000000000000000000000001111111111
1111111111100000000000000000000000000000000000000000000000001111111111
1111000000000000000000000000000000000000000000000000000000000000000000
0000000000000000000000000000000000000000000000000000111111111111111111
1110000000000000000000000000000000000000000000000111111111111111000000
0000000000000000000000000000000000000000000000000000000000000000000000
0000000000000000000000000000000000000000000111111111111111111111100000
0000000000000000000000000000000000000011111111111111000000000000000000
0000000000000000000000000000000000000000000000000000000000000000000000
0000000000000000000000000000000000011111111111111111111110000000000000
0000000000000000000000000001111111111111110000000000000000000000000000
0000000000000000000000000000000000000000000000000000000000000000000000
0000000000000000000000000001111111111111111111110000000000000000000000
0000000000000000011111111111111000000000000000000000000000000000000000
0000000000000000000000000000000000000000000000000000000000000000000000
0000000000000000000111111111111111111111110000000000000000000000000000
0000001111111111111100000000000000000000000000000000000000000000000000
0000000000000000000000000000000000000000000000000000000000000000000000
0000000001111111111111111111111111000000000000000000000000000000011111
1111111110000000000000000000000000000000000000000000000000000000000000
0000000000000000000000000000000000000000000000000000000000000000000000
0111111111111111111111111000000000000000000000000000001111111111111110
0000000000000000000000000000000000000000000000000000000000000000000000
0000000000000000000000000000000000000000000000000000000000000011111111
1111111111111111100000000000000000000000000011111111111111000000000000
0000000000000000000000000000000000000000000000000000000000000000000000
0000000000000000000000000000000000000000000000000000001111111111111111
1111111110001010000000000000000011111111111111100000000000000000000000
0000000000000000000000000000000000000000000000000000000000000000000000
0000000000000000000000000000000000000000000001111111111111111111111111
1111111110000000000001111111111111110000000000000000000000000000000000
0000000000000000000000000000000000000000000000000000000000000000000000
0000000000000000000000000000000000000111111111111111111111111111111111
1110110111111111111111111100000000000000000000000000000000000000000000
0000000000000000000000000000000000000000000000000000000000000000000000
0000000000000000000000000000011111111111111111111111111111111111111111
1111111111111110000000000000000000000000000000000000000000000000000000
0000000000000000000000000000000000000000000000000000000000000000000000
0000000000000000000001111111111111111111111111111111111111111111111111
1111000000000000000000000000000000000000000000000000000000000000000000
0000000000000000000000000000000000000000000000000000000000000000000000
0000000000000111111111111111111111111111111111111111111111111110000000
0000000000000000000000000000000000000000000000000000000000000000000000
0000000000000000000000000000000000000000000000000000000000000000000000
0000011111111111111111111111111111111111111111111111100000000000000000
0000000000000000000000000000000000000000000000000000000000000000000000
0000000000000000000000000000000000000000000000000000000000000000000011
1111111111111111111111111111111111111111110000000000000000000000000000
0000000000000000000000000000000000000000000000000000000000000000000000
0000000000000000000000000000000000000000000000000000000000011111111111
1111111111111111111111111111111000000000000000000000000000000000000000
0000000000000000000000000000000000000000000000000000000000000000000000
0000000000000000000000000000000000000000000000000001111111111111111111
1111111111111111111000000000000000000000000000000000000000000000000000
0000000000000000000000000000000000000000000000000000000000000000000000
0000000000000000000000000000000000000000000111111111111111111111111111
1111111110000000000000000000000000000000000000000000000000000000000000
0000000000000000000000000000000000000000000000000000000000000000000000
0000000000000000000000000000000000011111111111111111111111111111111000
0000000000000000000000000000000000000000000000000000000000000000000000
0000000000000000000000000000000000000000000000000000000000000000000000
0000000000000000000000000000000000000111111111111111111000000000000000
0000000000000000000000000000000000000000000000000000000000000000000000
0000000000000000000000000000000000000000000000000000000000000000000000
0000000000000000000000000000010111111111101000000000000000000000000000
0000000000000000000000000000000000000000000000000000000000000000000000
0000000000000000000000000000000000000000000000000000000000000000000000
0000000000000000000000000000000000000000000000000000000000000000000000
0000000000000000000000000000000000000000000000000000000000000000000000
0000000000000000000000000000000000000000000000000000000000000000000000
0000000000000000000000000000000000000000000000000000000000000000000000
0000000000000000000000000000000000000000000000000000000000000000000000
0000000000000000000000000000000000000000000000000000000000000000000000
0000000000000000000000000000000000000000000000000000000000000000000000
0000000000000000000000000000000000000000000000000000000000000000000000
0000000000000000000000000000000000000000000000000000000000000000000000
0000000000000000000000000000000000000000000000000000000000000000000000
0000000000000000000000000000000000000000000000000000000000000000000000
0000000000000000000000000000000000000000000000000000000000000000000000
0000000000000000000000000000000000000000000000000000000000000000000000
0000000000000000000000000000000000000000000000000000000000000000000000
0000000000000000000000000000000000000000000000000000000000000000000000
0000000000000000000000000000000000000000000000000000000000000000000000
0000000000000000000000000000000000000000000000000000000000000000000000
0000000000000000000000000000000000000000000000000000000000000000000000
0000000000000000000000000000000000000000000000000000000000000000000000
0000000000000000000000000000000000000000000000000000000000000000000000
0000000000000000000000000000000000000000000000000000000000000000000000
0000000000000000000000000000000000000000000000000000000000000000000000
0000000000000000000000000000000000000000000000000000000000000000000000
0000000000000000000000000000000000000000000000000000000000000000000000
0000000000000000000000000000000000000000000000000000000000000000000000
0000000000000000000000000000000000000000000000000000000000000000000000
0000000000000000000000000000000000000000000000000000000000000000000000
0000000000000000000000000000000000000000000000000000000000000000000000
0000000000000000000000000000000000000000000000000000000000000000000000
0000000000000000000000000000000000000000000000000000000000000000000000
0000000000000000000000000000000000000000000000000000000000000000000000
0000000000000000000000000000000000000000000000000000000000000000000000
0000000000000000000000000000000000000000000000000000000000000000000000
0000000000000000000000000000000000000000000000000000000000000000000000
0000000000000000000000000000000000000000000000000000000000000000000000
0000000000000000000000000000000000000000000000000000000000000000000000
0000000000000000000000000000000000000000000000000000000000000000000000
0000000000000000000000000000000000000000000000000000000000000000000000
0000000000000000000000000000000000000000000000000000000000000000000000
0000000000000000000000000000000000000000000000000000000000000000000000
0000000000000000000000000000000000000000000000000000000000000000000000
0000000000000000000000000000000000000000000000000000000000000000000000
0000000000000000000000000000000000000000000000000000000000000000000000
0000000000000000000000000000000000000000000000000000000000000000000000
0000000000000000000000000000000000000000000000000000000000000000000000
0000000000000000000000000000000000000000000000000000000000000000000000
0000000000000000000000000000000000000000000000000000000000000000000000
0000000000000000000000000000000000000000000000000000000000000000000000
0000000000000000000000000000000000000000000000000000000000000000000000
0000000000000000000000000000000000000000000000000000000000000000000000
0000000000000000000000000000000000000000000000000000000000000000000000
0000000000000000000000000000000000000000000000000000000000000000000000
0000000000000000000000000000000000000000000000000000000000000000000000
0000000000000000000000000000000000000000000000000000000000000000000000
0000000000000000000000000000000000000000000000000000000000000000000000
0000000000000000000000000000000000000000000000000000000000000000000000
0000000000000000000000000000000000000000000000000000000000000000000000
0000000000000000000000000000000000000000000000000000000000000000000000
0000000000000000000000000000000000000000000000000000000000000000000000
0000000000000000000000000000000000000000000000000000000000000000000000
0000000000000000000000000000000000000000000000000000000000000000000000
0000000000000000000000000000000000000000000000000000000000000000000000
0000000000000000000000000000000000000000000000000000000000000000000000
0000000000000000000000000000000000000000000000000000000000000000000000
0000000000000000000000000000000000000000000000000000000000000000000000
0000000000000000000000000000000000000000000000000000000000000000000000
0000000000000000000000000000000000000000000000000000000000000000000000
0000000000000000000000000000000000000000000000000000000000000000000000
0000000000000000000000000000000000000000000000000000000000000000000000
0000000000000000000000000000000000000000000000000000000000000000000000
0000000000000000000000000000000000000000000000000000000000000000000000
0000000000000000000000000000000000000000000000000000000000000000000000
0000000000000000000000000000000000000000000000000000000000000000000000
0000000000000000000000000000000000000000000000000000000000000000000000
0000000000000000000000000000000000000000000000000000000000000000000000
0000000000000000000000000000000000000000000000000000000000000000000000
0000000000000000000000000000000000000000000000000000000000000000000000
0000000000000000000000000000000000000000000000000000000000000000000000
0000000000000000000000000000000000000000000000000000000000000000000000
0000000000000000000000000000000000000000000000000000000000000000000000
0000000000000000000000000000000000000000000000000000000000000000000000
0000000000000000000000000000000000000000000000000000000000000000000000
0000000000000000000000000000000000000000000000000000000000000000000000
0000000000000000000000000000000000000000000000000000000000000000000000
0000000000000000000000000000000000000000000000000000000000000000000000
0000000000000000000000000000000000000000000000000000000000000000000000
0000000000000000000000000000000000000000000000000000000000000000000000
000000000000000000000000000000